<svg width="196" height="183" viewBox="0 0 196 183" fill="none" xmlns="http://www.w3.org/2000/svg">
<path d="M97.5698 167.31C126.661 167.31 150.245 162.188 150.245 155.87C150.245 149.552 126.661 144.43 97.5698 144.43C68.4782 144.43 44.8948 149.552 44.8948 155.87C44.8948 162.188 68.4782 167.31 97.5698 167.31Z" fill="#FFAAB8" fill-opacity="0.15"/>
<path d="M133.69 34.32H61.4499C48.1509 34.32 37.3699 44.5637 37.3699 57.2V125.84C37.3699 138.476 48.1509 148.72 61.4499 148.72H133.69C146.989 148.72 157.77 138.476 157.77 125.84V57.2C157.77 44.5637 146.989 34.32 133.69 34.32Z" fill="url(#paint0_linear_92_102)" stroke="#FFAAB8" stroke-width="2.99972"/>
<path opacity="0.6" d="M132.185 38.61H62.9548C52.9806 38.61 44.8948 46.2928 44.8948 55.77V64.35C44.8948 73.8272 52.9806 81.51 62.9548 81.51H132.185C142.159 81.51 150.245 73.8272 150.245 64.35V55.77C150.245 46.2928 142.159 38.61 132.185 38.61Z" fill="url(#paint1_radial_92_102)"/>
<path d="M49.4099 48.62H37.3699V134.42H49.4099V48.62Z" fill="#FFAAB8" fill-opacity="0.2"/>
<path d="M157.77 48.62H145.73V134.42H157.77V48.62Z" fill="black" fill-opacity="0.05"/>
<path d="M150.245 134.42H44.8948V145.86H150.245V134.42Z" fill="black" fill-opacity="0.08"/>
<path d="M97.5699 34.32V12.87" stroke="#FFAAB8" stroke-width="3.99963" stroke-linecap="round"/>
<path d="M97.5699 17.16C102.557 17.16 106.6 13.3186 106.6 8.58C106.6 3.8414 102.557 0 97.5699 0C92.5828 0 88.5399 3.8414 88.5399 8.58C88.5399 13.3186 92.5828 17.16 97.5699 17.16Z" fill="#FFAAB8"/>
<path opacity="0.5" d="M97.5699 17.16C102.557 17.16 106.6 13.3186 106.6 8.58C106.6 3.8414 102.557 0 97.5699 0C92.5828 0 88.5399 3.8414 88.5399 8.58C88.5399 13.3186 92.5828 17.16 97.5699 17.16Z" fill="url(#paint2_radial_92_102)"/>
<path d="M74.9949 74.36C80.0115 69.5933 85.0282 69.5933 90.0449 74.36" stroke="#333333" stroke-width="3.99963" stroke-linecap="round"/>
<path d="M105.095 74.36C110.112 69.5933 115.128 69.5933 120.145 74.36" stroke="#333333" stroke-width="3.99963" stroke-linecap="round"/>
<path opacity="0.4" d="M59.9449 108.68C65.7632 108.68 70.4799 104.198 70.4799 98.67C70.4799 93.1416 65.7632 88.66 59.9449 88.66C54.1266 88.66 49.4099 93.1416 49.4099 98.67C49.4099 104.198 54.1266 108.68 59.9449 108.68Z" fill="#FFAAB8"/>
<path opacity="0.4" d="M135.195 108.68C141.013 108.68 145.73 104.198 145.73 98.67C145.73 93.1416 141.013 88.66 135.195 88.66C129.377 88.66 124.66 93.1416 124.66 98.67C124.66 104.198 129.377 108.68 135.195 108.68Z" fill="#FFAAB8"/>
<path d="M74.9949 105.82C90.0449 115.353 105.095 115.353 120.145 105.82" stroke="#333333" stroke-width="3.49968" stroke-linecap="round"/>
<path opacity="0.7" d="M117.135 155.87H78.0049C73.8489 155.87 70.4799 159.071 70.4799 163.02V174.46C70.4799 178.409 73.8489 181.61 78.0049 181.61H117.135C121.291 181.61 124.66 178.409 124.66 174.46V163.02C124.66 159.071 121.291 155.87 117.135 155.87Z" fill="url(#paint3_linear_92_102)" stroke="#FFAAB8" stroke-width="2.49977"/>
<path opacity="0.3" d="M115.63 158.73H79.5099C77.0163 158.73 74.9949 160.651 74.9949 163.02V165.88C74.9949 168.249 77.0163 170.17 79.5099 170.17H115.63C118.123 170.17 120.145 168.249 120.145 165.88V163.02C120.145 160.651 118.123 158.73 115.63 158.73Z" fill="white"/>
<path d="M22.3199 97.24C33.9565 97.24 43.3899 91.4779 43.3899 84.37C43.3899 77.2621 33.9565 71.5 22.3199 71.5C10.6832 71.5 1.24988 77.2621 1.24988 84.37C1.24988 91.4779 10.6832 97.24 22.3199 97.24Z" fill="url(#paint4_linear_92_102)" stroke="#FFAAB8" stroke-width="2.49977"/>
<path d="M172.82 97.24C184.457 97.24 193.89 91.4779 193.89 84.37C193.89 77.2621 184.457 71.5 172.82 71.5C161.183 71.5 151.75 77.2621 151.75 84.37C151.75 91.4779 161.183 97.24 172.82 97.24Z" fill="url(#paint5_linear_92_102)" stroke="#FFAAB8" stroke-width="2.49977"/>
<defs>
<linearGradient id="paint0_linear_92_102" x1="37.3699" y1="34.32" x2="37.3699" y2="11474.3" gradientUnits="userSpaceOnUse">
<stop stop-color="#FFE8EC"/>
<stop offset="0.5" stop-color="#FFD8DF"/>
<stop offset="1" stop-color="#FFC8D1"/>
</linearGradient>
<radialGradient id="paint1_radial_92_102" cx="0" cy="0" r="1" gradientUnits="userSpaceOnUse" gradientTransform="translate(3205.39 1325.61) scale(52.675 21.45)">
<stop stop-color="white" stop-opacity="0.8"/>
<stop offset="0.5" stop-color="white" stop-opacity="0.3"/>
<stop offset="1" stop-color="white" stop-opacity="0"/>
</radialGradient>
<radialGradient id="paint2_radial_92_102" cx="0" cy="0" r="1" gradientUnits="userSpaceOnUse" gradientTransform="translate(630.34 514.8) scale(9.03 8.58)">
<stop stop-color="white" stop-opacity="0.8"/>
<stop offset="0.5" stop-color="white" stop-opacity="0.3"/>
<stop offset="1" stop-color="white" stop-opacity="0"/>
</radialGradient>
<linearGradient id="paint3_linear_92_102" x1="70.4799" y1="155.87" x2="70.4799" y2="2729.87" gradientUnits="userSpaceOnUse">
<stop stop-color="#FFE8EC"/>
<stop offset="0.5" stop-color="#FFD8DF"/>
<stop offset="1" stop-color="#FFC8D1"/>
</linearGradient>
<linearGradient id="paint4_linear_92_102" x1="1.24988" y1="71.5" x2="1.24988" y2="2645.5" gradientUnits="userSpaceOnUse">
<stop stop-color="#FFE8EC"/>
<stop offset="0.5" stop-color="#FFD8DF"/>
<stop offset="1" stop-color="#FFC8D1"/>
</linearGradient>
<linearGradient id="paint5_linear_92_102" x1="151.75" y1="71.5" x2="151.75" y2="2645.5" gradientUnits="userSpaceOnUse">
<stop stop-color="#FFE8EC"/>
<stop offset="0.5" stop-color="#FFD8DF"/>
<stop offset="1" stop-color="#FFC8D1"/>
</linearGradient>
</defs>
</svg>
